Coordinates
version=1
nRows=16
nColumns=42
inDegrees=yes

Units are S.I. units (second, meters, Newtons, ...)
If the header above contains a line with 'inDegrees', this indicates whether rotational values are in degrees (yes) or radians (no).

endheader
time	pelvis_tilt	pelvis_list	pelvis_rotation	pelvis_tx	pelvis_ty	pelvis_tz	hip_flexion_r	hip_adduction_r	hip_rotation_r	knee_angle_r	knee_adduction_r	knee_angle_r_beta	ankle_angle_r	subtalar_angle_r	mtp_angle_r	hip_flexion_l	hip_adduction_l	hip_rotation_l	knee_angle_l	knee_adduction_l	knee_angle_l_beta	ankle_angle_l	subtalar_angle_l	mtp_angle_l	lumbar_extension	lumbar_bending	lumbar_rotation	arm_flex_r	arm_add_r	arm_rot_r	elbow_flex_r	pro_sup_r	wrist_flex_r	wrist_dev_r	arm_flex_l	arm_add_l	arm_rot_l	elbow_flex_l	pro_sup_l	wrist_flex_l	wrist_dev_l
      0.55000000	      7.36229347	      0.62221592	      0.85859778	     -0.60793319	      1.00640195	     -0.26605981	     18.35087011	     -5.93106546	    -10.65833464	     17.70438568	      8.34213306	      0.30899982	      1.33652120	     -5.91508169	     -7.80697624	    -20.01159596	     -3.75541618	      1.98115441	      6.11047151	     12.80422723	      0.10664785	     13.90140859	      2.17235235	     -7.80697624	    -14.79073994	     -1.80674981	     -3.29009022	    -14.07194349	     -8.16693971	     -7.25230038	     19.09450246	     90.00000001	      0.00000000	      0.00000000	     18.66275794	    -21.66842359	      4.11082822	     40.41839470	     90.00000001	      0.00000000	      0.00000000
      0.56000000	      6.77933984	      1.01597285	      0.92469631	     -0.59429699	      1.00308238	     -0.26568292	     18.87530599	     -6.37785169	    -11.20614176	     14.65354082	      8.83048298	      0.25575253	      1.27142074	     -4.43871907	     -7.80228788	    -20.09206197	     -3.30386759	      2.02794261	      6.43813562	     12.61058521	      0.11236666	     14.30126246	      2.35571882	     -7.80228788	    -14.16877271	     -2.14840186	     -3.48237358	    -14.69728328	     -8.09900672	     -7.95144620	     19.81047766	     90.00000001	      0.00000000	      0.00000000	     19.23742591	    -22.00236792	      4.22597165	     41.18966585	     90.00000001	      0.00000000	      0.00000000
      0.57000000	      7.04130187	      0.85325883	      1.22452206	     -0.57998390	      1.00075758	     -0.26469191	     18.19013933	     -6.16244519	    -12.05739890	     11.54012069	      9.23147706	      0.20141310	      1.49562022	     -2.54219410	     -7.78828143	    -21.20466786	     -3.79113306	      1.99330590	      6.58245509	     12.82563613	      0.11488551	     14.71706592	      2.95442342	     -7.78828143	    -14.45087602	     -1.89933107	     -3.63612023	    -15.01118185	     -7.76703119	    -10.25485185	     20.14848521	     90.00000001	      0.00000000	      0.00000000	     19.85823807	    -22.48189987	      4.90414666	     42.22351736	     90.00000001	      0.00000000	      0.00000000
      0.58000000	      6.60304266	      1.19131771	      1.36999180	     -0.56606036	      0.99763185	     -0.26432544	     18.57672334	     -6.61520221	    -12.40415533	      9.32493267	      9.82145875	      0.16275078	      1.61535286	     -1.22008009	     -7.78303461	    -21.36617531	     -3.50261538	      2.17885847	      7.07791596	     12.76177383	      0.12353294	     15.06384221	      3.10006729	     -7.78303461	    -13.98908721	     -2.15304353	     -3.87590225	    -15.56900523	     -7.69639734	    -11.15598149	     21.05956349	     90.00000001	      0.00000000	      0.00000000	     20.25613534	    -22.75636598	      4.92018469	     43.04222697	     90.00000001	      0.00000000	      0.00000000
      0.59000000	      6.62781026	      1.14320789	      1.66141965	     -0.55154830	      0.99512807	     -0.26365487	     18.40674310	     -6.60885710	    -13.06709854	      7.58350608	     10.22147435	      0.13235715	      1.82662639	      0.33871461	     -7.76870763	    -22.11436492	     -3.78901812	      2.29144155	      7.44105625	     12.81761640	      0.12987093	     15.32614054	      3.49347831	     -7.76870763	    -13.99174429	     -1.97577169	     -4.10844166	    -15.87038236	     -7.45388578	    -13.04004405	     21.40661996	     90.00000001	      0.00000000	      0.00000000	     20.59986967	    -23.09893394	      5.24479997	     43.91270016	     90.00000001	      0.00000000	      0.00000000
      0.60000000	      6.34333175	      1.30481980	      1.86300249	     -0.53727678	      0.99235719	     -0.26318015	     18.73613006	     -6.83772629	    -13.14958577	      6.49812909	     10.59938513	      0.11341375	      1.92091098	      1.19617843	     -7.76438625	    -22.40941347	     -3.74629661	      2.61566094	      7.99679212	     12.75874882	      0.13957035	     15.47542852	      3.56337958	     -7.76438625	    -13.68655602	     -2.01242985	     -4.35510100	    -16.37736707	     -7.36860809	    -13.67448747	     22.04005122	     90.00000001	      0.00000000	      0.00000000	     20.80819771	    -23.30728593	      5.15513782	     44.69297467	     90.00000001	      0.00000000	      0.00000000
      0.61000000	      6.17187927	      1.31004396	      2.11160167	     -0.52275624	      0.98986379	     -0.26271279	     18.94750089	     -6.88139078	    -13.10922120	      5.91257723	     10.84626934	      0.10319394	      2.02965314	      1.81573262	     -7.76074858	    -22.80922211	     -3.90959614	      2.99956118	      8.58270842	     12.71788554	      0.14979652	     15.53365270	      3.61552768	     -7.76074858	    -13.47890116	     -1.85325488	     -4.61775248	    -16.82074774	     -7.29034206	    -14.23236792	     22.37084290	     90.00000001	      0.00000000	      0.00000000	     20.88967036	    -23.50020857	      5.07112728	     45.46185953	     90.00000001	      0.00000000	      0.00000000
      0.62000000	      6.17907512	      1.05319024	      2.46816580	     -0.50796635	      0.98776808	     -0.26202532	     18.96894697	     -6.56940242	    -13.20511890	      5.83967613	     10.80780687	      0.10192158	      2.14461108	      2.35265309	     -7.74885411	    -23.36349356	     -4.46955598	      3.40102028	      9.22228244	     12.77157248	      0.16095919	     15.54087615	      3.76975651	     -7.74885411	    -13.44652046	     -1.40076082	     -4.90921196	    -17.01784061	     -7.12076124	    -15.19020979	     22.01688711	     90.00000001	      0.00000000	      0.00000000	     20.88320057	    -23.66688454	      5.00279631	     46.22438251	     90.00000001	      0.00000000	      0.00000000
      0.63000000	      6.03947300	      0.98055583	      2.62480019	     -0.49313060	      0.98562241	     -0.26151809	     19.25042617	     -6.45948175	    -12.71972635	      6.28152343	     10.81247465	      0.10963327	      2.08950017	      2.44755725	     -7.74725796	    -23.76304670	     -4.65820475	      3.90499733	      9.86438391	     12.65208547	      0.17216598	     15.39231788	      3.85682592	     -7.74725796	    -13.23855089	     -1.13294731	     -5.02621287	    -17.43418025	     -7.09864729	    -15.22817056	     21.87892955	     90.00000001	      0.00000000	      0.00000000	     20.90745016	    -23.68250866	      4.90036123	     46.54329898	     90.00000001	      0.00000000	      0.00000000
      0.64000000	      5.95778189	      0.66865214	      2.98969826	     -0.47811149	      0.98377836	     -0.26082068	     19.47538273	     -6.07839120	    -12.51767683	      7.18489556	     10.63606352	      0.12540008	      1.93442170	      1.97645097	     -7.74308621	    -24.04185129	     -5.27945835	      4.37231104	     10.83386506	     12.70676695	      0.18908662	     15.12464182	      3.67134962	     -7.74308621	    -13.10028128	     -0.59579085	     -5.43566916	    -17.59983712	     -7.05632726	    -15.23239569	     21.25826713	     90.00000001	      0.00000000	      0.00000000	     20.42688175	    -23.83021096	      4.42116823	     47.54600014	     90.00000001	      0.00000000	      0.00000000
      0.65000000	      5.88081570	      0.27969314	      3.29501858	     -0.46279730	      0.98219695	     -0.26009430	     19.65654903	     -5.61996796	    -12.21096772	      8.30056135	     10.48436642	      0.14487213	      1.37961735	      1.32189865	     -7.73871130	    -24.35482680	     -5.93312204	      4.87901626	     11.73278809	     12.71504288	      0.20477578	     14.72809704	      3.57249545	     -7.73871130	    -12.92109712	      0.03289649	     -5.71135378	    -17.74116864	     -7.02967483	    -15.15282705	     20.49330589	     90.00000001	      0.00000000	      0.00000000	     19.98802537	    -23.81840636	      3.99832001	     48.13539414	     90.00000001	      0.00000000	      0.00000000
      0.66000000	      5.81944776	     -0.16934412	      3.57949689	     -0.44724631	      0.98090723	     -0.25938281	     19.81280307	     -5.10684793	    -11.90243243	      9.61410161	     10.32855094	      0.16779773	      0.51985827	      0.39150539	     -7.73415816	    -24.63145872	     -6.64099434	      5.31230683	     12.73907829	     12.74152391	      0.22233886	     14.15495531	      3.39342544	     -7.73415816	    -12.73189174	      0.74414760	     -5.96082504	    -17.86838105	     -7.06694435	    -15.02421589	     19.70126981	     90.00000001	      0.00000000	      0.00000000	     19.42817817	    -23.73973486	      3.51152309	     48.64635027	     90.00000001	      0.00000000	      0.00000000
      0.67000000	      5.81336681	     -0.67179237	      3.80132459	     -0.43161859	      0.98001384	     -0.25852408	     19.92273592	     -4.54694908	    -11.65900301	     11.10414741	     10.20904581	      0.19380393	     -0.60982991	     -0.60683041	     -7.73033999	    -24.89872036	     -7.37563701	      5.64660645	     13.86456626	     12.76557077	      0.24198233	     13.30590473	      3.13853913	     -7.73033999	    -12.60682643	      1.49899334	     -6.13557546	    -17.93173350	     -7.12688710	    -14.83887511	     18.96063376	     90.00000001	      0.00000000	      0.00000000	     18.82317359	    -23.63169514	      2.99174618	     49.07127391	     90.00000001	      0.00000000	      0.00000000
      0.68000000	      5.83735445	     -1.17237417	      3.97341965	     -0.41579309	      0.97962623	     -0.25766703	     19.96682641	     -4.01070956	    -11.47174913	     12.62893980	     10.10793984	      0.22041658	     -1.86382013	     -1.52544217	     -7.72726406	    -25.11792123	     -8.12127219	      5.84324254	     15.12044035	     12.90116275	      0.26390147	     12.17781228	      2.80382918	     -7.72726406	    -12.50035038	      2.26757808	     -6.22333065	    -17.93359043	     -7.19695681	    -14.65768089	     18.34081859	     90.00000001	      0.00000000	      0.00000000	     18.08370350	    -23.38472498	      2.49525543	     49.37770385	     90.00000001	      0.00000000	      0.00000000
      0.69000000	      5.76826217	     -2.16004135	      4.15836604	     -0.39989668	      0.97975732	     -0.25639630	     19.71524774	     -2.82775565	    -10.12355982	     13.16348436	     10.17694454	      0.22974614	     -4.44497686	     -5.37306896	     -7.70975227	    -25.09306566	     -9.37377123	      5.87881336	     16.60591977	     13.04901609	      0.28982798	     10.91840679	      2.27912909	     -7.70975227	    -12.26267628	      3.52388574	     -6.24766265	    -17.72858271	     -7.30862123	    -14.84727631	     17.58827326	     90.00000001	      0.00000000	      0.00000000	     17.25396180	    -22.99500424	      1.69555865	     49.54517649	     90.00000001	      0.00000000	      0.00000000
      0.70000000	      5.82743926	     -2.72404630	      4.20249887	     -0.38382897	      0.98033638	     -0.25535392	     19.72700388	     -2.24943382	    -10.04286817	     14.86455462	     10.14398058	      0.25943542	     -5.49170097	     -6.03514152	     -7.70601734	    -25.11157675	    -10.09742572	      5.65166077	     18.27623169	     13.12397284	      0.31898042	      9.04600955	      1.63450835	     -7.70601734	    -12.18427326	      4.33251856	     -6.25555309	    -17.53390235	     -7.49226966	    -14.72364718	     17.21653149	     90.00000001	      0.00000000	      0.00000000	     16.31209479	    -22.69743065	      1.19086254	     49.62769986	     90.00000001	      0.00000000	      0.00000000
